<svg xmlns="http://www.w3.org/2000/svg" width="480" height="400" viewBox="0 0 480 400"><defs><marker id="fl" viewBox="0 0 10 10" refX="9" refY="5" markerWidth="7" markerHeight="7" orient="auto-start-reverse"><path d="M0,0 L10,5 L0,10 z" fill="#546e7a"/></marker></defs><rect x="0" y="0" width="480" height="360" rx="6" fill="#ffffff" stroke="#c5cae9" stroke-width="2"/><line x1="240.0" y1="180.0" x2="240.0" y2="70.0" stroke="#ff6f00" stroke-width="5" stroke-linecap="round"/><line x1="240.0" y1="180.0" x2="295.0" y2="84.7" stroke="#ff9c00" stroke-width="5" stroke-linecap="round"/><line x1="240.0" y1="180.0" x2="335.3" y2="125.0" stroke="#ffca00" stroke-width="5" stroke-linecap="round"/><line x1="240.0" y1="180.0" x2="350.0" y2="180.0" stroke="#fff800" stroke-width="5" stroke-linecap="round"/><line x1="240.0" y1="180.0" x2="335.3" y2="235.0" stroke="#d7ff00" stroke-width="5" stroke-linecap="round"/><line x1="240.0" y1="180.0" x2="295.0" y2="275.3" stroke="#a9ff00" stroke-width="5" stroke-linecap="round"/><line x1="240.0" y1="180.0" x2="240.0" y2="290.0" stroke="#7bff00" stroke-width="5" stroke-linecap="round"/><line x1="240.0" y1="180.0" x2="185.0" y2="275.3" stroke="#4dff00" stroke-width="5" stroke-linecap="round"/><line x1="240.0" y1="180.0" x2="144.7" y2="235.0" stroke="#1fff00" stroke-width="5" stroke-linecap="round"/><line x1="240.0" y1="180.0" x2="130.0" y2="180.0" stroke="#00ff0e" stroke-width="5" stroke-linecap="round"/><line x1="240.0" y1="180.0" x2="144.7" y2="125.0" stroke="#00ff3c" stroke-width="5" stroke-linecap="round"/><line x1="240.0" y1="180.0" x2="185.0" y2="84.7" stroke="#00ff69" stroke-width="5" stroke-linecap="round"/><text x="240" y="388" font-family="Arial" font-size="15" fill="#37474f" text-anchor="middle">Résultat attendu : douze rayons</text></svg>