<svg xmlns="http://www.w3.org/2000/svg" width="640" height="400" viewBox="0 0 640 400" font-family="Liberation Sans, Arial, sans-serif"><rect width="640" height="400" fill="#ffffff"/><path d="M320,50 Q320,200 537,125" fill="none" stroke="#b07d1a" stroke-width="2"/><rect x="357" y="119" width="34" height="20" rx="4" fill="#ffffff" stroke="#1d3557"/><text x="374" y="134" text-anchor="middle" font-size="12" font-weight="700" fill="#1d3557">F1</text><line x1="320.0" y1="200.0" x2="320" y2="50" stroke="#1d3557" stroke-width="1.5"/><rect x="303" y="114" width="34" height="20" rx="4" fill="#ffffff" stroke="#1d3557"/><text x="320" y="129" text-anchor="middle" font-size="12" font-weight="700" fill="#1d3557">C1</text><line x1="320.0" y1="200.0" x2="537" y2="125" stroke="#1d3557" stroke-width="1.5"/><rect x="411" y="152" width="34" height="20" rx="4" fill="#ffffff" stroke="#1d3557"/><text x="428" y="166" text-anchor="middle" font-size="12" font-weight="700" fill="#1d3557">C2</text><line x1="320.0" y1="200.0" x2="537" y2="275" stroke="#1d3557" stroke-width="1.5"/><rect x="411" y="226" width="34" height="20" rx="4" fill="#ffffff" stroke="#1d3557"/><text x="428" y="242" text-anchor="middle" font-size="12" font-weight="700" fill="#1d3557">C3</text><line x1="320.0" y1="200.0" x2="320" y2="350" stroke="#1d3557" stroke-width="1.5"/><rect x="303" y="264" width="34" height="20" rx="4" fill="#ffffff" stroke="#1d3557"/><text x="320" y="279" text-anchor="middle" font-size="12" font-weight="700" fill="#1d3557">C4</text><line x1="320.0" y1="200.0" x2="103" y2="275" stroke="#1d3557" stroke-width="1.5"/><rect x="195" y="227" width="34" height="20" rx="4" fill="#ffffff" stroke="#1d3557"/><text x="212" y="242" text-anchor="middle" font-size="12" font-weight="700" fill="#1d3557">C5</text><line x1="320.0" y1="200.0" x2="103" y2="125" stroke="#1d3557" stroke-width="1.5"/><rect x="195" y="152" width="34" height="20" rx="4" fill="#ffffff" stroke="#1d3557"/><text x="212" y="166" text-anchor="middle" font-size="12" font-weight="700" fill="#1d3557">C6</text><ellipse cx="320.0" cy="200.0" rx="78" ry="34" fill="#1d3557"/><text x="320" y="196" text-anchor="middle" font-size="14" fill="#ffffff" font-weight="700">Voiture</text><text x="320" y="212" text-anchor="middle" font-size="14" fill="#ffffff" font-weight="700">télécommandée</text><ellipse cx="320" cy="50" rx="74" ry="28" fill="#eef3f8" stroke="#1d3557" stroke-width="1.5"/><text x="320" y="46" text-anchor="middle" font-size="13" fill="#14181d" font-weight="400">Enfant</text><text x="320" y="62" text-anchor="middle" font-size="13" fill="#14181d" font-weight="400">utilisateur</text><ellipse cx="537" cy="125" rx="74" ry="28" fill="#eef3f8" stroke="#1d3557" stroke-width="1.5"/><text x="537" y="121" text-anchor="middle" font-size="13" fill="#14181d" font-weight="400">Terrain avec</text><text x="537" y="137" text-anchor="middle" font-size="13" fill="#14181d" font-weight="400">obstacles</text><ellipse cx="537" cy="275" rx="74" ry="28" fill="#eef3f8" stroke="#1d3557" stroke-width="1.5"/><text x="537" y="279" text-anchor="middle" font-size="13" fill="#14181d" font-weight="400">Piles</text><ellipse cx="320" cy="350" rx="74" ry="28" fill="#eef3f8" stroke="#1d3557" stroke-width="1.5"/><text x="320" y="354" text-anchor="middle" font-size="13" fill="#14181d" font-weight="400">Jeunes enfants</text><ellipse cx="103" cy="275" rx="74" ry="28" fill="#eef3f8" stroke="#1d3557" stroke-width="1.5"/><text x="103" y="279" text-anchor="middle" font-size="13" fill="#14181d" font-weight="400">Déchetterie</text><ellipse cx="103" cy="125" rx="74" ry="28" fill="#eef3f8" stroke="#1d3557" stroke-width="1.5"/><text x="103" y="129" text-anchor="middle" font-size="13" fill="#14181d" font-weight="400">Télécommande</text></svg>