<svg xmlns="http://www.w3.org/2000/svg" viewBox="0 0 300 210" width="300" height="210"><rect width="300" height="210" fill="#fbfcfc" stroke="#dfe6e3"/><polygon points="60.0,82.0 195.1,160.0 195.1,118.4 60.0,40.4" fill="#a4adaa" fill-opacity="1.00" stroke="#5b5f63" stroke-width="0.9" stroke-linejoin="round"/><polygon points="62.8,80.4 60.0,82.0 60.0,40.4 62.8,38.8" fill="#a4adaa" fill-opacity="1.00" stroke="#5b5f63" stroke-width="0.9" stroke-linejoin="round"/><polygon points="62.8,38.8 197.9,116.8 195.1,118.4 60.0,40.4" fill="#dfe3e2" fill-opacity="1.00" stroke="#5b5f63" stroke-width="0.9" stroke-linejoin="round"/><polygon points="62.8,80.4 197.9,158.4 197.9,116.8 62.8,38.8" fill="#c2c9c7" fill-opacity="1.00" stroke="#5b5f63" stroke-width="0.9" stroke-linejoin="round"/><polygon points="197.9,158.4 195.1,160.0 195.1,118.4 197.9,116.8" fill="#c2c9c7" fill-opacity="1.00" stroke="#5b5f63" stroke-width="0.9" stroke-linejoin="round"/><polygon points="105.0,56.0 240.1,134.0 195.1,160.0 60.0,82.0" fill="#eceae2" fill-opacity="1.00" stroke="#5b5f63" stroke-width="0.9" stroke-linejoin="round"/><polygon points="97.1,60.5 232.2,138.5 232.2,119.0 97.1,41.0" fill="#6d9d57" fill-opacity="0.45" stroke="#5b5f63" stroke-width="0.9" stroke-linejoin="round"/><polygon points="105.0,56.0 97.1,60.5 97.1,41.0 105.0,36.5" fill="#6d9d57" fill-opacity="0.45" stroke="#5b5f63" stroke-width="0.9" stroke-linejoin="round"/><polygon points="105.0,36.5 240.1,114.5 232.2,119.0 97.1,41.0" fill="#bcd9ac" fill-opacity="0.45" stroke="#5b5f63" stroke-width="0.9" stroke-linejoin="round"/><polygon points="105.0,56.0 240.1,134.0 240.1,114.5 105.0,36.5" fill="#8fbd78" fill-opacity="0.45" stroke="#5b5f63" stroke-width="0.9" stroke-linejoin="round"/><polygon points="240.1,134.0 232.2,138.5 232.2,119.0 240.1,114.5" fill="#8fbd78" fill-opacity="0.45" stroke="#5b5f63" stroke-width="0.9" stroke-linejoin="round"/><polygon points="60.0,82.0 63.3,83.9 63.3,67.0 60.0,65.1" fill="#a4adaa" fill-opacity="1.00" stroke="#5b5f63" stroke-width="0.9" stroke-linejoin="round"/><polygon points="105.0,56.0 60.0,82.0 60.0,65.1 105.0,39.1" fill="#a4adaa" fill-opacity="1.00" stroke="#5b5f63" stroke-width="0.9" stroke-linejoin="round"/><polygon points="105.0,39.1 108.4,41.0 63.3,67.0 60.0,65.1" fill="#dfe3e2" fill-opacity="1.00" stroke="#5b5f63" stroke-width="0.9" stroke-linejoin="round"/><polygon points="105.0,56.0 108.4,58.0 108.4,41.0 105.0,39.1" fill="#c2c9c7" fill-opacity="1.00" stroke="#5b5f63" stroke-width="0.9" stroke-linejoin="round"/><polygon points="108.4,58.0 63.3,83.9 63.3,67.0 108.4,41.0" fill="#c2c9c7" fill-opacity="1.00" stroke="#5b5f63" stroke-width="0.9" stroke-linejoin="round"/><rect x="8.0" y="150.0" width="150.4" height="21.0" rx="3" fill="#ffffff" fill-opacity="0.92" stroke="#dfe6e3"/><circle cx="17.0" cy="160.0" r="3.2" fill="#a8814f"/><text x="24.0" y="163.0" font-family="Arial" font-size="9.5" fill="#3a4744">Balise Bacs : oeil ferme</text><text x="150.0" y="192.0" font-family="Arial" font-size="9.5" fill="#6f8b83" text-anchor="middle">Balise masquee : etat avant travaux</text></svg>