<svg xmlns="http://www.w3.org/2000/svg" viewBox="0 0 300 210" width="300" height="210"><rect width="300" height="210" fill="#fbfcfc" stroke="#dfe6e3"/><polygon points="151.2,129.4 164.7,137.2 164.7,133.1 151.2,125.3" fill="#a8814f" fill-opacity="1.00" stroke="#5b5f63" stroke-width="0.9" stroke-linejoin="round"/><polygon points="160.2,124.2 151.2,129.4 151.2,125.3 160.2,120.1" fill="#a8814f" fill-opacity="1.00" stroke="#5b5f63" stroke-width="0.9" stroke-linejoin="round"/><polygon points="160.2,120.1 173.7,127.9 164.7,133.1 151.2,125.3" fill="#e2c295" fill-opacity="1.00" stroke="#5b5f63" stroke-width="0.9" stroke-linejoin="round"/><polygon points="160.2,124.2 173.7,132.0 173.7,127.9 160.2,120.1" fill="#c9a06d" fill-opacity="1.00" stroke="#5b5f63" stroke-width="0.9" stroke-linejoin="round"/><polygon points="173.7,132.0 164.7,137.2 164.7,133.1 173.7,127.9" fill="#c9a06d" fill-opacity="1.00" stroke="#5b5f63" stroke-width="0.9" stroke-linejoin="round"/><polygon points="180.1,121.8 181.0,122.4 181.0,95.1 180.1,94.5" fill="#a8814f" fill-opacity="1.00" stroke="#5b5f63" stroke-width="0.9" stroke-linejoin="round"/><polygon points="181.0,121.3 180.1,121.8 180.1,94.5 181.0,94.0" fill="#a8814f" fill-opacity="1.00" stroke="#5b5f63" stroke-width="0.9" stroke-linejoin="round"/><polygon points="181.0,94.0 181.9,94.5 181.0,95.1 180.1,94.5" fill="#e2c295" fill-opacity="1.00" stroke="#5b5f63" stroke-width="0.9" stroke-linejoin="round"/><polygon points="181.0,121.3 181.9,121.8 181.9,94.5 181.0,94.0" fill="#c9a06d" fill-opacity="1.00" stroke="#5b5f63" stroke-width="0.9" stroke-linejoin="round"/><polygon points="181.9,121.8 181.0,122.4 181.0,95.1 181.9,94.5" fill="#c9a06d" fill-opacity="1.00" stroke="#5b5f63" stroke-width="0.9" stroke-linejoin="round"/><polygon points="60.0,82.0 195.1,160.0 195.1,118.4 60.0,40.4" fill="#a4adaa" fill-opacity="1.00" stroke="#5b5f63" stroke-width="0.9" stroke-linejoin="round"/><polygon points="62.8,80.4 60.0,82.0 60.0,40.4 62.8,38.8" fill="#a4adaa" fill-opacity="1.00" stroke="#5b5f63" stroke-width="0.9" stroke-linejoin="round"/><polygon points="62.8,38.8 197.9,116.8 195.1,118.4 60.0,40.4" fill="#dfe3e2" fill-opacity="1.00" stroke="#5b5f63" stroke-width="0.9" stroke-linejoin="round"/><polygon points="62.8,80.4 197.9,158.4 197.9,116.8 62.8,38.8" fill="#c2c9c7" fill-opacity="1.00" stroke="#5b5f63" stroke-width="0.9" stroke-linejoin="round"/><polygon points="197.9,158.4 195.1,160.0 195.1,118.4 197.9,116.8" fill="#c2c9c7" fill-opacity="1.00" stroke="#5b5f63" stroke-width="0.9" stroke-linejoin="round"/><polygon points="129.8,117.1 143.3,124.9 143.3,120.7 129.8,112.9" fill="#a8814f" fill-opacity="1.00" stroke="#5b5f63" stroke-width="0.9" stroke-linejoin="round"/><polygon points="138.8,111.9 129.8,117.1 129.8,112.9 138.8,107.7" fill="#a8814f" fill-opacity="1.00" stroke="#5b5f63" stroke-width="0.9" stroke-linejoin="round"/><polygon points="138.8,107.7 152.3,115.5 143.3,120.7 129.8,112.9" fill="#e2c295" fill-opacity="1.00" stroke="#5b5f63" stroke-width="0.9" stroke-linejoin="round"/><polygon points="138.8,111.9 152.3,119.7 152.3,115.5 138.8,107.7" fill="#c9a06d" fill-opacity="1.00" stroke="#5b5f63" stroke-width="0.9" stroke-linejoin="round"/><polygon points="152.3,119.7 143.3,124.9 143.3,120.7 152.3,115.5" fill="#c9a06d" fill-opacity="1.00" stroke="#5b5f63" stroke-width="0.9" stroke-linejoin="round"/><polygon points="173.7,116.4 187.2,124.2 187.2,120.1 173.7,112.3" fill="#a8814f" fill-opacity="1.00" stroke="#5b5f63" stroke-width="0.9" stroke-linejoin="round"/><polygon points="182.7,111.2 173.7,116.4 173.7,112.3 182.7,107.1" fill="#a8814f" fill-opacity="1.00" stroke="#5b5f63" stroke-width="0.9" stroke-linejoin="round"/><polygon points="182.7,107.1 196.2,114.9 187.2,120.1 173.7,112.3" fill="#e2c295" fill-opacity="1.00" stroke="#5b5f63" stroke-width="0.9" stroke-linejoin="round"/><polygon points="182.7,111.2 196.2,119.0 196.2,114.9 182.7,107.1" fill="#c9a06d" fill-opacity="1.00" stroke="#5b5f63" stroke-width="0.9" stroke-linejoin="round"/><polygon points="196.2,119.0 187.2,124.2 187.2,120.1 196.2,114.9" fill="#c9a06d" fill-opacity="1.00" stroke="#5b5f63" stroke-width="0.9" stroke-linejoin="round"/><polygon points="190.2,116.0 191.1,116.5 191.1,89.2 190.2,88.7" fill="#a8814f" fill-opacity="1.00" stroke="#5b5f63" stroke-width="0.9" stroke-linejoin="round"/><polygon points="191.1,115.5 190.2,116.0 190.2,88.7 191.1,88.2" fill="#a8814f" fill-opacity="1.00" stroke="#5b5f63" stroke-width="0.9" stroke-linejoin="round"/><polygon points="191.1,88.2 192.0,88.7 191.1,89.2 190.2,88.7" fill="#e2c295" fill-opacity="1.00" stroke="#5b5f63" stroke-width="0.9" stroke-linejoin="round"/><polygon points="191.1,115.5 192.0,116.0 192.0,88.7 191.1,88.2" fill="#c9a06d" fill-opacity="1.00" stroke="#5b5f63" stroke-width="0.9" stroke-linejoin="round"/><polygon points="192.0,116.0 191.1,116.5 191.1,89.2 192.0,88.7" fill="#c9a06d" fill-opacity="1.00" stroke="#5b5f63" stroke-width="0.9" stroke-linejoin="round"/><polygon points="105.0,56.0 240.1,134.0 195.1,160.0 60.0,82.0" fill="#eceae2" fill-opacity="1.00" stroke="#5b5f63" stroke-width="0.9" stroke-linejoin="round"/><polygon points="108.4,104.8 121.9,112.5 121.9,108.4 108.4,100.6" fill="#a8814f" fill-opacity="1.00" stroke="#5b5f63" stroke-width="0.9" stroke-linejoin="round"/><polygon points="117.4,99.5 108.4,104.8 108.4,100.6 117.4,95.4" fill="#a8814f" fill-opacity="1.00" stroke="#5b5f63" stroke-width="0.9" stroke-linejoin="round"/><polygon points="117.4,95.4 130.9,103.2 121.9,108.4 108.4,100.6" fill="#e2c295" fill-opacity="1.00" stroke="#5b5f63" stroke-width="0.9" stroke-linejoin="round"/><polygon points="117.4,99.5 130.9,107.3 130.9,103.2 117.4,95.4" fill="#c9a06d" fill-opacity="1.00" stroke="#5b5f63" stroke-width="0.9" stroke-linejoin="round"/><polygon points="130.9,107.3 121.9,112.5 121.9,108.4 130.9,103.2" fill="#c9a06d" fill-opacity="1.00" stroke="#5b5f63" stroke-width="0.9" stroke-linejoin="round"/><polygon points="152.3,104.1 165.8,111.9 165.8,107.7 152.3,99.9" fill="#a8814f" fill-opacity="1.00" stroke="#5b5f63" stroke-width="0.9" stroke-linejoin="round"/><polygon points="161.3,98.9 152.3,104.1 152.3,99.9 161.3,94.7" fill="#a8814f" fill-opacity="1.00" stroke="#5b5f63" stroke-width="0.9" stroke-linejoin="round"/><polygon points="161.3,94.7 174.8,102.5 165.8,107.7 152.3,99.9" fill="#e2c295" fill-opacity="1.00" stroke="#5b5f63" stroke-width="0.9" stroke-linejoin="round"/><polygon points="161.3,98.9 174.8,106.7 174.8,102.5 161.3,94.7" fill="#c9a06d" fill-opacity="1.00" stroke="#5b5f63" stroke-width="0.9" stroke-linejoin="round"/><polygon points="174.8,106.7 165.8,111.9 165.8,107.7 174.8,102.5" fill="#c9a06d" fill-opacity="1.00" stroke="#5b5f63" stroke-width="0.9" stroke-linejoin="round"/><polygon points="106.9,52.3 181.0,95.1 181.0,94.3 106.9,51.5" fill="#6d9d57" fill-opacity="1.00" stroke="#5b5f63" stroke-width="0.9" stroke-linejoin="round"/><polygon points="117.9,45.9 106.9,52.3 106.9,51.5 117.9,45.1" fill="#6d9d57" fill-opacity="1.00" stroke="#5b5f63" stroke-width="0.9" stroke-linejoin="round"/><polygon points="117.9,45.1 192.0,87.9 181.0,94.3 106.9,51.5" fill="#bcd9ac" fill-opacity="1.00" stroke="#5b5f63" stroke-width="0.9" stroke-linejoin="round"/><polygon points="117.9,45.9 192.0,88.7 192.0,87.9 117.9,45.1" fill="#8fbd78" fill-opacity="1.00" stroke="#5b5f63" stroke-width="0.9" stroke-linejoin="round"/><polygon points="192.0,88.7 181.0,95.1 181.0,94.3 192.0,87.9" fill="#8fbd78" fill-opacity="1.00" stroke="#5b5f63" stroke-width="0.9" stroke-linejoin="round"/><polygon points="97.1,60.5 232.2,138.5 232.2,119.0 97.1,41.0" fill="#6d9d57" fill-opacity="0.45" stroke="#5b5f63" stroke-width="0.9" stroke-linejoin="round"/><polygon points="105.0,56.0 97.1,60.5 97.1,41.0 105.0,36.5" fill="#6d9d57" fill-opacity="0.45" stroke="#5b5f63" stroke-width="0.9" stroke-linejoin="round"/><polygon points="105.0,36.5 240.1,114.5 232.2,119.0 97.1,41.0" fill="#bcd9ac" fill-opacity="0.45" stroke="#5b5f63" stroke-width="0.9" stroke-linejoin="round"/><polygon points="105.0,56.0 240.1,134.0 240.1,114.5 105.0,36.5" fill="#8fbd78" fill-opacity="0.45" stroke="#5b5f63" stroke-width="0.9" stroke-linejoin="round"/><polygon points="240.1,134.0 232.2,138.5 232.2,119.0 240.1,114.5" fill="#8fbd78" fill-opacity="0.45" stroke="#5b5f63" stroke-width="0.9" stroke-linejoin="round"/><polygon points="87.0,92.4 100.5,100.2 100.5,96.0 87.0,88.2" fill="#a8814f" fill-opacity="1.00" stroke="#5b5f63" stroke-width="0.9" stroke-linejoin="round"/><polygon points="96.0,87.2 87.0,92.4 87.0,88.2 96.0,83.0" fill="#a8814f" fill-opacity="1.00" stroke="#5b5f63" stroke-width="0.9" stroke-linejoin="round"/><polygon points="96.0,83.0 109.5,90.8 100.5,96.0 87.0,88.2" fill="#e2c295" fill-opacity="1.00" stroke="#5b5f63" stroke-width="0.9" stroke-linejoin="round"/><polygon points="96.0,87.2 109.5,95.0 109.5,90.8 96.0,83.0" fill="#c9a06d" fill-opacity="1.00" stroke="#5b5f63" stroke-width="0.9" stroke-linejoin="round"/><polygon points="109.5,95.0 100.5,100.2 100.5,96.0 109.5,90.8" fill="#c9a06d" fill-opacity="1.00" stroke="#5b5f63" stroke-width="0.9" stroke-linejoin="round"/><polygon points="130.9,91.8 144.4,99.5 144.4,95.4 130.9,87.6" fill="#a8814f" fill-opacity="1.00" stroke="#5b5f63" stroke-width="0.9" stroke-linejoin="round"/><polygon points="139.9,86.5 130.9,91.8 130.9,87.6 139.9,82.4" fill="#a8814f" fill-opacity="1.00" stroke="#5b5f63" stroke-width="0.9" stroke-linejoin="round"/><polygon points="139.9,82.4 153.4,90.2 144.4,95.4 130.9,87.6" fill="#e2c295" fill-opacity="1.00" stroke="#5b5f63" stroke-width="0.9" stroke-linejoin="round"/><polygon points="139.9,86.5 153.4,94.3 153.4,90.2 139.9,82.4" fill="#c9a06d" fill-opacity="1.00" stroke="#5b5f63" stroke-width="0.9" stroke-linejoin="round"/><polygon points="153.4,94.3 144.4,99.5 144.4,95.4 153.4,90.2" fill="#c9a06d" fill-opacity="1.00" stroke="#5b5f63" stroke-width="0.9" stroke-linejoin="round"/><polygon points="70.1,82.0 78.0,86.5 78.0,76.1 70.1,71.6" fill="#a4adaa" fill-opacity="1.00" stroke="#5b5f63" stroke-width="0.9" stroke-linejoin="round"/><polygon points="78.0,77.5 70.1,82.0 70.1,71.6 78.0,67.0" fill="#a4adaa" fill-opacity="1.00" stroke="#5b5f63" stroke-width="0.9" stroke-linejoin="round"/><polygon points="78.0,67.0 85.9,71.6 78.0,76.1 70.1,71.6" fill="#dfe3e2" fill-opacity="1.00" stroke="#5b5f63" stroke-width="0.9" stroke-linejoin="round"/><polygon points="78.0,77.5 85.9,82.0 85.9,71.6 78.0,67.0" fill="#c2c9c7" fill-opacity="1.00" stroke="#5b5f63" stroke-width="0.9" stroke-linejoin="round"/><polygon points="85.9,82.0 78.0,86.5 78.0,76.1 85.9,71.6" fill="#c2c9c7" fill-opacity="1.00" stroke="#5b5f63" stroke-width="0.9" stroke-linejoin="round"/><polygon points="109.5,79.4 123.0,87.2 123.0,83.0 109.5,75.2" fill="#a8814f" fill-opacity="1.00" stroke="#5b5f63" stroke-width="0.9" stroke-linejoin="round"/><polygon points="118.5,74.2 109.5,79.4 109.5,75.2 118.5,70.0" fill="#a8814f" fill-opacity="1.00" stroke="#5b5f63" stroke-width="0.9" stroke-linejoin="round"/><polygon points="118.5,70.0 132.0,77.8 123.0,83.0 109.5,75.2" fill="#e2c295" fill-opacity="1.00" stroke="#5b5f63" stroke-width="0.9" stroke-linejoin="round"/><polygon points="118.5,74.2 132.0,82.0 132.0,77.8 118.5,70.0" fill="#c9a06d" fill-opacity="1.00" stroke="#5b5f63" stroke-width="0.9" stroke-linejoin="round"/><polygon points="132.0,82.0 123.0,87.2 123.0,83.0 132.0,77.8" fill="#c9a06d" fill-opacity="1.00" stroke="#5b5f63" stroke-width="0.9" stroke-linejoin="round"/><polygon points="106.9,79.6 107.8,80.1 107.8,52.8 106.9,52.3" fill="#a8814f" fill-opacity="1.00" stroke="#5b5f63" stroke-width="0.9" stroke-linejoin="round"/><polygon points="107.8,79.1 106.9,79.6 106.9,52.3 107.8,51.8" fill="#a8814f" fill-opacity="1.00" stroke="#5b5f63" stroke-width="0.9" stroke-linejoin="round"/><polygon points="107.8,51.8 108.7,52.3 107.8,52.8 106.9,52.3" fill="#e2c295" fill-opacity="1.00" stroke="#5b5f63" stroke-width="0.9" stroke-linejoin="round"/><polygon points="107.8,79.1 108.7,79.6 108.7,52.3 107.8,51.8" fill="#c9a06d" fill-opacity="1.00" stroke="#5b5f63" stroke-width="0.9" stroke-linejoin="round"/><polygon points="108.7,79.6 107.8,80.1 107.8,52.8 108.7,52.3" fill="#c9a06d" fill-opacity="1.00" stroke="#5b5f63" stroke-width="0.9" stroke-linejoin="round"/><polygon points="117.0,73.7 117.9,74.3 117.9,47.0 117.0,46.4" fill="#a8814f" fill-opacity="1.00" stroke="#5b5f63" stroke-width="0.9" stroke-linejoin="round"/><polygon points="117.9,73.2 117.0,73.7 117.0,46.4 117.9,45.9" fill="#a8814f" fill-opacity="1.00" stroke="#5b5f63" stroke-width="0.9" stroke-linejoin="round"/><polygon points="117.9,45.9 118.8,46.4 117.9,47.0 117.0,46.4" fill="#e2c295" fill-opacity="1.00" stroke="#5b5f63" stroke-width="0.9" stroke-linejoin="round"/><polygon points="117.9,73.2 118.8,73.7 118.8,46.4 117.9,45.9" fill="#c9a06d" fill-opacity="1.00" stroke="#5b5f63" stroke-width="0.9" stroke-linejoin="round"/><polygon points="118.8,73.7 117.9,74.3 117.9,47.0 118.8,46.4" fill="#c9a06d" fill-opacity="1.00" stroke="#5b5f63" stroke-width="0.9" stroke-linejoin="round"/><polygon points="60.0,82.0 63.3,83.9 63.3,67.0 60.0,65.1" fill="#a4adaa" fill-opacity="1.00" stroke="#5b5f63" stroke-width="0.9" stroke-linejoin="round"/><polygon points="105.0,56.0 60.0,82.0 60.0,65.1 105.0,39.1" fill="#a4adaa" fill-opacity="1.00" stroke="#5b5f63" stroke-width="0.9" stroke-linejoin="round"/><polygon points="105.0,39.1 108.4,41.0 63.3,67.0 60.0,65.1" fill="#dfe3e2" fill-opacity="1.00" stroke="#5b5f63" stroke-width="0.9" stroke-linejoin="round"/><polygon points="105.0,56.0 108.4,58.0 108.4,41.0 105.0,39.1" fill="#c2c9c7" fill-opacity="1.00" stroke="#5b5f63" stroke-width="0.9" stroke-linejoin="round"/><polygon points="108.4,58.0 63.3,83.9 63.3,67.0 108.4,41.0" fill="#c2c9c7" fill-opacity="1.00" stroke="#5b5f63" stroke-width="0.9" stroke-linejoin="round"/><path d="M 74.7 71.6 A 3.3 1.9 0 0 0 81.2 71.6 L 81.2 59.9 A 3.3 1.9 0 0 0 74.7 59.9 Z" fill="#87b8d6" stroke="#5b5f63" stroke-width="0.9"/><ellipse cx="78.0" cy="59.9" rx="3.3" ry="1.9" fill="#bcd9ea" stroke="#5b5f63" stroke-width="0.9"/><rect x="8.0" y="150.0" width="122.4" height="21.0" rx="3" fill="#ffffff" fill-opacity="0.92" stroke="#dfe6e3"/><circle cx="17.0" cy="160.0" r="3.2" fill="#d9803a"/><text x="24.0" y="163.0" font-family="Arial" font-size="9.5" fill="#3a4744">Export PNG, 1920 px</text><text x="150.0" y="192.0" font-family="Arial" font-size="9.5" fill="#6f8b83" text-anchor="middle">Export pour le dossier</text></svg>